<?xml version="1.0" ?>
<!-- Uploaded to: SVG Repo, www.svgrepo.com, Generator: SVG Repo Mixer Tools -->
<svg width="800px" height="800px" viewBox="0 0 512 512" version="1.1" xml:space="preserve" xmlns="http://www.w3.org/2000/svg" xmlns:xlink="http://www.w3.org/1999/xlink">
<style type="text/css">
	.st0{fill:#16ADE1;}
	.st1{fill:#1B3954;}
</style>
<g id="Layer_1"/>
<g id="Layer_2">
<g>
<path class="st1" d="M448.7,187.7H63.3C51,187.7,41,197.7,41,210v238.7C41,461,51,471,63.3,471h385.3c12.3,0,22.3-10,22.3-22.3    V210C471,197.7,461,187.7,448.7,187.7z M427,253v47.7H167.5V253H427z M376.7,345.1v28.7H348v-28.7H376.7z M320.7,345.1v28.7H292    v-28.7H320.7z M264.7,345.1v28.7H236v-28.7H264.7z M85,253h56v47.7H85V253z M141,449.3c-34.1,0-61.7-27.6-61.7-61.7    c0-34.1,27.6-61.7,61.7-61.7s61.7,27.6,61.7,61.7C202.7,421.7,175.1,449.3,141,449.3z M432.7,430.3H236v-33.8h196.7V430.3z     M432.7,373.8H404v-28.7h28.7V373.8z"/>
<path class="st0" d="M141,364.5c-12.8,0-23.2,10.4-23.2,23.2c0,12.8,10.4,23.2,23.2,23.2s23.2-10.4,23.2-23.2    C164.2,374.9,153.8,364.5,141,364.5z"/>
<polygon class="st0" points="398,53.5 387,41 126.6,177.7 214.3,177.7   "/>
</g>
</g>
</svg>